<?xml version="1.0" encoding="UTF-8"?>
<svg id="Layer_1" data-name="Layer 1" xmlns="http://www.w3.org/2000/svg" viewBox="0 0 1920 1080">
  <defs>
    <style>
      .cls-1 {
        fill: #1a3a08;
      }
    </style>
  </defs>
  <g>
    <g>
      <path class="cls-1" d="M200.96,510.94h65.5c1.33,0,2.4,1.08,2.4,2.4v155.23c0,1.33,1.08,2.4,2.4,2.4h48.04c1.33,0,2.4,1.08,2.4,2.4v83.27c0,1.33-1.08,2.4-2.4,2.4h-118.34c-1.33,0-2.4-1.08-2.4-2.4v-243.31c0-1.33,1.08-2.4,2.4-2.4Z"/>
      <path class="cls-1" d="M314.51,513l-12.74,87.03c-.21,1.45.91,2.75,2.38,2.75h35.7c1.09,0,2.05-.74,2.32-1.79l22.92-87.03c.4-1.52-.75-3.02-2.32-3.02h-45.88c-1.19,0-2.21.88-2.38,2.06Z"/>
      <path class="cls-1" d="M392.25,510.94h118.11c1.33,0,2.4,1.08,2.4,2.4v78.13c0,1.33-1.08,2.4-2.4,2.4h-47.8c-1.33,0-2.4,1.08-2.4,2.4v8.56c0,1.33,1.08,2.4,2.4,2.4h37.66c1.33,0,2.4,1.08,2.4,2.4v54.14c0,1.33-1.08,2.4-2.4,2.4h-37.66c-1.33,0-2.4,1.08-2.4,2.4v9.24c0,1.33,1.08,2.4,2.4,2.4h51.11c1.33,0,2.4,1.08,2.4,2.4v74.01c0,1.33-1.08,2.4-2.4,2.4h-121.41c-1.33,0-2.4-1.08-2.4-2.4v-243.31c0-1.33,1.08-2.4,2.4-2.4Z"/>
      <path class="cls-1" d="M540.01,510.94h60.01c.93,0,1.77.53,2.17,1.37l49.6,104.52.47-.34v-103.15c0-1.33,1.08-2.4,2.4-2.4h58.42c1.33,0,2.4,1.08,2.4,2.4v243.31c0,1.33-1.08,2.4-2.4,2.4h-60.01c-.93,0-1.77-.53-2.17-1.37l-49.6-104.52-.47.34v103.15c0,1.33-1.08,2.4-2.4,2.4h-58.42c-1.33,0-2.4-1.08-2.4-2.4v-243.31c0-1.33,1.08-2.4,2.4-2.4Z"/>
      <path class="cls-1" d="M731.87,674.83c0-1.84,1.97-2.97,3.58-2.09,7.77,4.25,16.07,6.81,22.61,6.81,13.68,0,17.69-12.34,17.69-24.68v-141.53c0-1.33,1.08-2.4,2.4-2.4h65.5c1.33,0,2.4,1.08,2.4,2.4v144.96c0,34.95-6.84,62.37-19.34,79.16-13.68,18.51-33.03,25.36-54.73,25.36-16.13,0-30.94-4.76-39.18-10.93-.59-.45-.93-1.16-.93-1.9v-75.16Z"/>
      <path class="cls-1" d="M915.6,510.94h63.53c1.09,0,2.05.74,2.33,1.79l63.85,243.31c.4,1.52-.75,3.01-2.33,3.01h-70.84c-1.16,0-2.16-.83-2.37-1.98l-5.18-28.61c-.21-1.14-1.2-1.98-2.37-1.98h-35.19c-1.14,0-2.13.81-2.36,1.93l-5.82,28.7c-.23,1.12-1.21,1.93-2.36,1.93h-64.75c-1.58,0-2.73-1.49-2.33-3.01l63.85-243.31c.28-1.06,1.23-1.79,2.33-1.79ZM950.12,664.13c1.47,0,2.6-1.31,2.38-2.76l-7.14-47.62h-.47l-7.14,47.62c-.22,1.45.91,2.76,2.38,2.76h9.99Z"/>
      <path class="cls-1" d="M1057.52,510.94h61.75c.88,0,1.69.48,2.11,1.25l31.14,57.17c.92,1.69,3.35,1.67,4.24-.03l30.03-57.11c.42-.79,1.23-1.29,2.13-1.29h59.84c1.33,0,2.4,1.08,2.4,2.4v243.31c0,1.33-1.08,2.4-2.4,2.4h-65.5c-1.33,0-2.4-1.08-2.4-2.4v-118.57h-.47l-28.33,54.23c-.89,1.71-3.34,1.72-4.25.02l-29-54.25h-.47v118.57c0,1.33-1.08,2.4-2.4,2.4h-58.42c-1.33,0-2.4-1.08-2.4-2.4v-243.31c0-1.33,1.08-2.4,2.4-2.4Z"/>
      <path class="cls-1" d="M1276.04,513.34c0-1.33,1.08-2.4,2.4-2.4h66.01c25.72,0,79.98,3.77,79.98,63.06,0,20.91-6.84,40.1-25.72,49.69v.69c24.77,13.37,30.43,36.67,30.43,58.94,0,65.46-48.13,75.74-81.39,75.74h-69.32c-1.33,0-2.4-1.08-2.4-2.4v-243.31ZM1348.94,611.69c8.96,0,13.21-6.85,13.21-15.42s-4.48-15.42-13.21-15.42h-.19c-1.33,0-2.4,1.08-2.4,2.4v26.04c0,1.33,1.08,2.4,2.4,2.4h.19ZM1349.41,692.57c11.09,0,16.28-8.57,16.28-19.19s-5.43-19.19-16.28-19.19h-.66c-1.33,0-2.4,1.08-2.4,2.4v33.57c0,1.33,1.08,2.4,2.4,2.4h.66Z"/>
      <path class="cls-1" d="M1449.87,510.94h118.11c1.33,0,2.4,1.08,2.4,2.4v78.13c0,1.33-1.08,2.4-2.4,2.4h-47.8c-1.33,0-2.4,1.08-2.4,2.4v8.56c0,1.33,1.08,2.4,2.4,2.4h37.66c1.33,0,2.4,1.08,2.4,2.4v54.14c0,1.33-1.08,2.4-2.4,2.4h-37.66c-1.33,0-2.4,1.08-2.4,2.4v9.24c0,1.33,1.08,2.4,2.4,2.4h51.11c1.33,0,2.4,1.08,2.4,2.4v74.01c0,1.33-1.08,2.4-2.4,2.4h-121.41c-1.33,0-2.4-1.08-2.4-2.4v-243.31c0-1.33,1.08-2.4,2.4-2.4ZM1503.82,437.26h59.03c1.91,0,3.06,2.13,2.01,3.73l-33.87,51.4c-.44.67-1.2,1.08-2.01,1.08h-45.87c-1.7,0-2.87-1.72-2.23-3.3l20.71-51.4c.37-.91,1.25-1.51,2.23-1.51Z"/>
      <path class="cls-1" d="M1597.63,510.94h118.11c1.33,0,2.4,1.08,2.4,2.4v78.13c0,1.33-1.08,2.4-2.4,2.4h-47.8c-1.33,0-2.4,1.08-2.4,2.4v8.56c0,1.33,1.08,2.4,2.4,2.4h37.66c1.33,0,2.4,1.08,2.4,2.4v54.14c0,1.33-1.08,2.4-2.4,2.4h-37.66c-1.33,0-2.4,1.08-2.4,2.4v9.24c0,1.33,1.08,2.4,2.4,2.4h51.11c1.33,0,2.4,1.08,2.4,2.4v74.01c0,1.33-1.08,2.4-2.4,2.4h-121.41c-1.33,0-2.4-1.08-2.4-2.4v-243.31c0-1.33,1.08-2.4,2.4-2.4Z"/>
    </g>
    <g>
      <path class="cls-1" d="M1036.39,419.34l-21.47,8.12c-1.16.44-2.47-.08-3.01-1.2l-6.16-12.71c-.67-1.38-2.44-1.79-3.64-.85l-18.34,14.33c-.97.75-1.21,2.11-.57,3.16l19.4,31.42c.69,1.12,2.15,1.47,3.27.8l37.36-22.2c.94-.56,1.38-1.68,1.08-2.73l-4.76-16.56c-.39-1.35-1.85-2.08-3.16-1.58h0ZM1037.58,437.98l-30.1,17.89c-1.13.67-2.58.31-3.27-.8l-14.65-23.72c-.64-1.04-.4-2.4.57-3.16l10.24-8.01c1.21-.94,2.98-.53,3.64.85l5.48,11.31c.54,1.12,1.85,1.64,3.01,1.2l20.71-7.83c1.31-.5,2.77.23,3.16,1.58l2.29,7.97c.3,1.05-.14,2.17-1.08,2.73Z"/>
      <path class="cls-1" d="M858.57,255.16c-2.71,0-5.14,1.09-6.92,2.87-1.5,1.51-2.52,3.48-2.79,5.7-.09.7-.68,1.22-1.39,1.22h-2.01c-.84,0-1.5-.74-1.41-1.58.79-7.32,6.99-13.02,14.52-13.02,7.53,0,13.73,5.7,14.52,13.02.09.84-.56,1.58-1.41,1.58h-2.01c-.7,0-1.3-.52-1.39-1.22-.27-2.22-1.29-4.19-2.79-5.7-1.78-1.77-4.21-2.87-6.92-2.87ZM1122.04,255.16c-2.71,0-5.14,1.09-6.92,2.87-1.5,1.51-2.52,3.48-2.79,5.7-.09.7-.68,1.22-1.39,1.22h-2.01c-.84,0-1.5-.74-1.41-1.58.79-7.32,6.99-13.02,14.52-13.02,7.53,0,13.73,5.7,14.52,13.02.09.84-.56,1.58-1.41,1.58h-2.01c-.7,0-1.3-.52-1.39-1.22-.27-2.22-1.29-4.19-2.79-5.7-1.78-1.77-4.21-2.87-6.92-2.87ZM906.13,275.35l44.05,14.11c1.92.61,3.7-1.24,2.98-3.13-3.13-8.27-7.87-25.8,1.28-39.89,2.08-3.2,4.83-6.13,8.5-8.62,3.62-2.45,8.14-4.47,13.8-5.82.09-.02.19-.04.29-.06,2.68-.39,5.21-.57,7.58-.57,24.1,0,33.76,18.78,36.6,26,.56,1.42-.34,2.99-1.84,3.25l-2.93.49c-.61.1-1.01.7-.85,1.3,1.52,5.67,6.76,31.3-20.91,36.01-.23.04-1.19.13-2.47.25-2.44.22-3.04,3.53-.82,4.57l51.13,24.02h0s.02,0,.02,0h0c1.39.67,3.04-.13,3.38-1.63l3.74-16.43c.32-1.4,1.78-2.21,3.14-1.74l12.15,4.24c1.09.38,1.76,1.48,1.58,2.63l-6.24,41.41c-.24,1.6-1.96,2.51-3.42,1.81l-43.59-20.99s-.08-.04-.12-.06l-1.29-.71-30.77,34.54c-.65.73-.79,1.77-.37,2.65l13.73,28.34c.51,1.05.19,2.31-.76,3l-12.32,8.9c-1.13.82-2.72.5-3.45-.69l-21.89-35.46c-.96-1.55-3.22-1.51-4.13.06l-15.12,26.16c-.74,1.28-2.46,1.6-3.6.66l-49.02-40.13c-.92-.75-2.26-.72-3.14.08l-19.28,17.51c-1.19,1.08-3.08.71-3.78-.73l-3.34-6.89c-.42-.88-.28-1.92.37-2.65l24.91-27.97c.72-.8,1.88-1.03,2.85-.56l39.46,19.26c1.46.71,3.19-.2,3.43-1.8l7.76-51.86c.18-1.18-.53-2.3-1.67-2.65l-14.4-4.43c-1.33-.41-2.74.4-3.05,1.76l-3.63,15.85c-.34,1.49-1.98,2.29-3.37,1.64l-9.54-4.48c-.99-.46-1.54-1.54-1.34-2.61l6.62-36.07c.26-1.43,1.72-2.3,3.1-1.86ZM1192.13,361.41l11.06-67.97c.19-1.16-.49-2.29-1.61-2.66l-17.19-5.79c-1.36-.46-2.81.37-3.12,1.77l-6.91,31.93c-.33,1.51-1.97,2.32-3.37,1.67l-33.53-15.75c-1.89-.89-1.81-3.57.11-4.4.52-.22,1.04-.46,1.56-.71,3.65-1.76,7.38-4.29,10.23-8.01,5.45-7.09,5.29-14.7,4.49-24.16-.11-1.24.76-2.36,2-2.57l1.8-.3c1.43-.24,2.33-1.67,1.91-3.06-1.25-4.1-4.26-12.29-9.94-19.3-3.24-4-7.49-7.88-12.95-10.77-5.48-2.89-12.16-4.76-20.17-4.74-2.69,0-5.53.2-8.53.65h-.1s-.1.04-.1.04c-6.26,1.46-11.43,3.73-15.64,6.57-6.32,4.28-10.42,9.85-12.86,15.74-2.46,5.88-3.32,12.06-3.32,17.72,0,4.51.65,8.8,1.26,11.81.36,1.8-1.35,3.31-3.09,2.75l-39.84-12.77c-1.38-.44-2.84.43-3.1,1.86l-7.15,38.97c-.28,1.55-1.96,2.41-3.39,1.74l-15.05-7.06c-1.89-.89-1.81-3.57.11-4.4.52-.22,1.04-.46,1.56-.71,15.93-7.74,15.83-19.55,14.71-32.17-.11-1.25.76-2.37,2-2.57l1.95-.33c1.4-.23,2.29-1.62,1.93-2.99-1-3.81-3.63-11.36-10.1-19.34-3.7-4.57-28.04-28.23-57.5-8.25-19.11,12.97-16.81,35.97-14.94,45.27.36,1.79-1.35,3.3-3.09,2.74l-39.82-12.76c-1.38-.44-2.84.43-3.1,1.86l-7.15,38.97c-.28,1.55-1.96,2.41-3.39,1.74l-15.05-7.06c-1.89-.89-1.81-3.57.11-4.4.52-.22,1.04-.46,1.56-.71,3.63-1.76,7.36-4.29,10.22-8.01,5.36-6.98,5.31-14.74,4.49-24.16-.11-1.25.76-2.37,2-2.57l1.81-.3c1.43-.24,2.33-1.67,1.91-3.06-1.25-4.09-4.25-12.26-9.95-19.3-3.24-4-7.47-7.88-12.95-10.77-5.46-2.89-12.16-4.76-20.17-4.74-2.69,0-5.53.2-8.53.65h-.08s-.1.04-.1.04c-6.28,1.46-11.44,3.73-15.65,6.57-6.31,4.28-10.42,9.85-12.86,15.74-2.46,5.88-3.32,12.06-3.32,17.72,0,4.42.66,8.77,1.27,11.82.36,1.79-1.35,3.31-3.09,2.75l-39.85-12.77c-1.37-.44-2.82.42-3.09,1.84l-10.7,56.01c-.21,1.08.35,2.16,1.34,2.63l18.35,8.62c1.39.65,3.03-.15,3.37-1.65l6.17-27.39c.31-1.39,1.76-2.2,3.11-1.75l8.38,2.83c1.11.37,1.78,1.49,1.61,2.64l-6.28,41.32c-.24,1.6-1.97,2.51-3.43,1.8l-39.59-19.33c-.97-.47-2.13-.24-2.85.56l-29.5,33.11c-.65.73-.79,1.77-.37,2.65l7.54,15.59c.7,1.45,2.59,1.81,3.78.73l20.98-19.05c.88-.8,2.22-.83,3.14-.08l50.18,41.09c1.15.94,2.86.63,3.6-.66l13.93-24.09c.91-1.57,3.17-1.61,4.13-.06l46.41,75.16c.69,1.12,2.15,1.47,3.27.8l37.36-22.2c.94-.56,1.38-1.68,1.08-2.73l-4.76-16.57c-.39-1.35-1.85-2.08-3.16-1.58l-21.47,8.12c-1.16.44-2.47-.08-3.01-1.2l-17.71-36.53c-.47-.96-.24-2.11.55-2.83l18.34-16.65c.88-.8,2.22-.83,3.14-.08l50.19,41.09c1.15.94,2.86.63,3.6-.66l13.93-24.09c.91-1.57,3.17-1.61,4.13-.06l20.39,33.01c.73,1.19,2.32,1.5,3.45.69l19.78-14.29c.95-.68,1.26-1.95.76-3l-6.36-13.13c-.46-.96-.24-2.11.55-2.83l18.33-16.65c.88-.8,2.22-.84,3.14-.08l50.2,41.09c1.15.94,2.86.63,3.6-.66l13.93-24.09c.91-1.57,3.17-1.61,4.13-.06l46.41,75.16c.69,1.12,2.15,1.47,3.27.8l37.35-22.2c.94-.56,1.38-1.68,1.08-2.73l-4.75-16.57c-.39-1.35-1.85-2.08-3.16-1.59l-21.49,8.12c-1.16.44-2.47-.08-3.01-1.2l-19.28-39.8-6.14-12.68c-.42-.88-.28-1.92.37-2.65l24.93-27.98c.72-.8,1.88-1.03,2.85-.56l42.2,20.6c1.45.71,3.17-.18,3.43-1.77Z"/>
      <path class="cls-1" d="M983.38,258.02c1.78-1.77,4.21-2.87,6.92-2.87,2.71,0,5.14,1.09,6.92,2.87,1.5,1.51,2.52,3.48,2.79,5.7.09.7.68,1.22,1.39,1.22h2.01c.84,0,1.5-.74,1.41-1.58-.79-7.32-6.99-13.02-14.52-13.02-7.53,0-13.73,5.7-14.52,13.02-.09.84.56,1.58,1.41,1.58h2.01c.7,0,1.3-.52,1.39-1.22.27-2.22,1.29-4.19,2.79-5.7Z"/>
    </g>
  </g>
  <g>
    <g>
      <path class="cls-1" d="M210.76,851.35c-2.89-1.81-5.1-4.28-6.64-7.42-1.54-3.13-2.31-6.68-2.31-10.65s.77-7.51,2.31-10.65c1.54-3.14,3.75-5.61,6.64-7.41,2.89-1.81,6.25-2.71,10.1-2.71,2.89,0,5.52.54,7.91,1.62,2.38,1.08,4.31,2.63,5.77,4.64,1.46,2.02,2.29,4.36,2.48,7.01h-5.77c-.27-2.46-1.34-4.42-3.2-5.89s-4.16-2.19-6.9-2.19h-.58c-2.69,0-5.02.68-6.98,2.05-1.96,1.37-3.45,3.23-4.47,5.6-1.02,2.37-1.53,5.01-1.53,7.93s.51,5.57,1.53,7.93c1.02,2.37,2.51,4.23,4.47,5.6,1.96,1.37,4.29,2.05,6.98,2.05h.58c1.81,0,3.44-.34,4.91-1.01,1.46-.67,2.64-1.62,3.55-2.83.9-1.21,1.45-2.63,1.64-4.24h5.77c-.19,2.65-1.02,4.99-2.48,7.01-1.46,2.02-3.39,3.57-5.77,4.64-2.39,1.08-5.02,1.62-7.91,1.62-3.85,0-7.21-.9-10.1-2.71Z"/>
      <path class="cls-1" d="M244.81,813.09h5.77v35.2h23.66v5.19h-29.43v-40.39Z"/>
      <path class="cls-1" d="M285.35,852.21c-2.29-1.23-3.99-2.97-5.11-5.22-1.12-2.25-1.67-4.89-1.67-7.93v-25.97h5.77v25.39c0,3.35.79,5.92,2.37,7.7,1.58,1.79,3.87,2.68,6.87,2.68h.58c3,0,5.29-.9,6.87-2.68,1.58-1.79,2.37-4.36,2.37-7.7v-25.39h5.77v25.97c0,4.58-1.32,8.22-3.95,10.94-2.64,2.71-6.42,4.07-11.34,4.07-3.39,0-6.22-.61-8.51-1.85Z"/>
      <path class="cls-1" d="M319.19,813.09h17.6c2.12,0,4.06.43,5.83,1.3,1.77.87,3.16,2.11,4.18,3.72s1.53,3.5,1.53,5.65-.6,4.14-1.79,5.71c-1.19,1.58-2.79,2.75-4.79,3.52,2.31.38,4.13,1.41,5.45,3.09,1.33,1.67,1.99,3.82,1.99,6.43,0,2.15-.54,4.07-1.62,5.74s-2.52,2.96-4.33,3.87c-1.81.91-3.77,1.36-5.89,1.36h-18.18v-40.39ZM340.77,828.78c1.19-1.08,1.79-2.56,1.79-4.44s-.6-3.37-1.79-4.44c-1.19-1.08-2.81-1.62-4.85-1.62h-10.96v12.12h10.96c2.04,0,3.65-.54,4.85-1.62ZM341.47,846.61c1.31-1.11,1.96-2.67,1.96-4.67s-.65-3.56-1.96-4.68c-1.31-1.11-3.06-1.67-5.25-1.67h-11.25v12.7h11.25c2.19,0,3.94-.56,5.25-1.67Z"/>
      <path class="cls-1" d="M371.53,813.09h14.43c3.73,0,7.01.81,9.84,2.42s5.02,3.94,6.58,6.98c1.56,3.04,2.34,6.64,2.34,10.79s-.78,7.75-2.34,10.79c-1.56,3.04-3.75,5.37-6.58,6.98s-6.11,2.42-9.84,2.42h-14.43v-40.39ZM392.74,846.58c2.02-1.13,3.56-2.83,4.62-5.08,1.06-2.25,1.59-4.99,1.59-8.22,0-4.89-1.17-8.61-3.52-11.17-2.35-2.56-5.69-3.84-10.04-3.84h-8.08v30.01h8.08c2.89,0,5.34-.57,7.36-1.7Z"/>
      <path class="cls-1" d="M412.79,813.09h29.43v5.19h-23.66v11.83h20.2v5.2h-20.2v12.98h24.24v5.19h-30.01v-40.39Z"/>
      <path class="cls-1" d="M473.04,818.28h-14.43v-5.19h34.62v5.19h-14.43v35.2h-5.77v-35.2Z"/>
      <path class="cls-1" d="M499.41,813.09h17.31c2.46,0,4.65.47,6.58,1.41,1.92.94,3.42,2.25,4.5,3.92,1.08,1.67,1.62,3.55,1.62,5.63,0,2.54-.63,4.73-1.88,6.58s-2.84,3.06-4.76,3.64c2.27,0,3.85.43,4.73,1.3.89.86,1.33,2.32,1.33,4.36v13.56h-5.77v-12.12c0-1.58-.28-2.65-.84-3.2-.56-.56-1.62-.84-3.2-.84h-13.85v16.16h-5.77v-40.39ZM520.01,831.18c1.19-.63,2.1-1.5,2.71-2.6.61-1.1.92-2.32.92-3.66,0-2.15-.68-3.8-2.05-4.93-1.37-1.13-3.28-1.7-5.74-1.7h-10.68v13.85h10.68c1.58,0,2.96-.32,4.15-.95Z"/>
      <path class="cls-1" d="M538.65,813.09h5.77v40.39h-5.77v-40.39Z"/>
      <path class="cls-1" d="M566,813.09h7.39l15.87,40.39h-6l-14.31-36.64h1.21l-14.25,36.64h-5.89l15.98-40.39ZM559.08,837.9h21.06v5.19h-21.06v-5.19Z"/>
      <path class="cls-1" d="M600.4,818.28h-14.43v-5.19h34.62v5.19h-14.43v35.2h-5.77v-35.2Z"/>
      <path class="cls-1" d="M626.77,813.09h5.77v17.6h20.49v-17.6h5.77v40.39h-5.77v-17.6h-20.49v17.6h-5.77v-40.39Z"/>
      <path class="cls-1" d="M669.18,813.09h5.77v35.2h23.66v5.19h-29.43v-40.39Z"/>
      <path class="cls-1" d="M709.23,851.55c-2.89-1.67-5.15-4.08-6.78-7.21-1.64-3.14-2.45-6.82-2.45-11.05s.82-7.92,2.45-11.05,3.9-5.54,6.78-7.21c2.89-1.67,6.16-2.51,9.81-2.51s6.92.84,9.81,2.51c2.89,1.67,5.15,4.08,6.78,7.21s2.45,6.82,2.45,11.05-.82,7.92-2.45,11.05c-1.64,3.14-3.9,5.54-6.78,7.21s-6.16,2.51-9.81,2.51-6.93-.84-9.81-2.51ZM726.02,846.99c1.96-1.25,3.5-3.05,4.62-5.4s1.67-5.12,1.67-8.31-.56-5.96-1.67-8.31-2.65-4.15-4.62-5.4c-1.96-1.25-4.19-1.87-6.69-1.87h-.58c-2.5,0-4.73.62-6.69,1.87-1.96,1.25-3.5,3.05-4.62,5.4s-1.67,5.12-1.67,8.31.56,5.96,1.67,8.31,2.65,4.15,4.62,5.4c1.96,1.25,4.19,1.88,6.69,1.88h.58c2.5,0,4.73-.62,6.69-1.88Z"/>
      <path class="cls-1" d="M746.11,813.09h8.08l19.62,34.97-.86.23v-35.2h5.77v40.39h-8.08l-19.62-34.97.87-.23v35.2h-5.77v-40.39Z"/>
    </g>
    <g>
      <path class="cls-1" d="M1376.97,818.28h-14.43v-5.19h34.63v5.19h-14.43v35.2h-5.77v-35.2Z"/>
      <path class="cls-1" d="M1403.34,813.09h17.31c2.46,0,4.65.47,6.58,1.41,1.92.94,3.42,2.25,4.5,3.92,1.08,1.67,1.62,3.55,1.62,5.63,0,2.54-.62,4.73-1.87,6.58s-2.84,3.06-4.76,3.64c2.27,0,3.85.43,4.73,1.3.88.86,1.33,2.32,1.33,4.36v13.56h-5.77v-12.12c0-1.58-.28-2.65-.84-3.2-.56-.56-1.63-.84-3.2-.84h-13.85v16.16h-5.77v-40.39ZM1423.94,831.18c1.19-.63,2.1-1.5,2.71-2.6s.92-2.32.92-3.66c0-2.15-.68-3.8-2.05-4.93s-3.28-1.7-5.74-1.7h-10.68v13.85h10.68c1.58,0,2.96-.32,4.15-.95Z"/>
      <path class="cls-1" d="M1442.58,813.09h29.43v5.19h-23.66v11.83h20.2v5.2h-20.2v12.98h24.24v5.19h-30.01v-40.39Z"/>
      <path class="cls-1" d="M1480.21,813.09h9.58l12.75,36.93h-1.33l12.47-36.93h9.52v40.39h-5.77v-37.1l.52.06-12.41,37.05h-7.39l-12.76-36.99.58-.11v37.1h-5.77v-40.39Z"/>
      <path class="cls-1" d="M1533.58,813.09h17.6c2.12,0,4.06.43,5.83,1.3,1.77.87,3.16,2.11,4.18,3.72s1.53,3.5,1.53,5.65-.6,4.14-1.79,5.71c-1.19,1.58-2.79,2.75-4.79,3.52,2.31.38,4.13,1.41,5.45,3.09,1.33,1.67,1.99,3.82,1.99,6.43,0,2.15-.54,4.07-1.62,5.74-1.08,1.67-2.52,2.96-4.33,3.87-1.81.91-3.77,1.36-5.88,1.36h-18.18v-40.39ZM1555.17,828.78c1.19-1.08,1.79-2.56,1.79-4.44s-.6-3.37-1.79-4.44c-1.19-1.08-2.81-1.62-4.85-1.62h-10.97v12.12h10.97c2.04,0,3.65-.54,4.85-1.62ZM1555.86,846.61c1.31-1.11,1.96-2.67,1.96-4.67s-.65-3.56-1.96-4.68c-1.31-1.11-3.06-1.67-5.25-1.67h-11.25v12.7h11.25c2.19,0,3.94-.56,5.25-1.67Z"/>
      <path class="cls-1" d="M1571.84,813.09h5.77v35.2h23.66v5.19h-29.43v-40.39Z"/>
      <path class="cls-1" d="M1618.65,813.09h7.39l15.87,40.39h-6l-14.31-36.64h1.21l-14.25,36.64h-5.89l15.99-40.39ZM1611.72,837.9h21.06v5.19h-21.06v-5.19Z"/>
      <path class="cls-1" d="M1647.56,813.09h8.08l19.62,34.97-.87.23v-35.2h5.77v40.39h-8.08l-19.62-34.97.87-.23v35.2h-5.77v-40.39Z"/>
      <path class="cls-1" d="M1700.76,818.28h-14.43v-5.19h34.62v5.19h-14.43v35.2h-5.77v-35.2Z"/>
    </g>
  </g>
</svg>